# xmcd
#
# Track frame offsets: 
#        150
#        18616
#        34082
#        48635
#        67674
#        89875
#        105247
#        120028
#
# Disc length: 1929 seconds
#
# Revision: 0
# Processed by: cddbd v1.5.2PL0 Copyright (c) Steve Scherf et al.
# Submitted via: ExactAudioCopyFreeDBPlugin 1.0
#
DISCID=5c078708
DTITLE=Marlon Williams - Live at La Niche
DYEAR=1900
DGENRE=Country
TTITLE0=Heaven For You
TTITLE1=That's All I Can Remember
TTITLE2=Katie My Darling
TTITLE3=The State Hospital
TTITLE4=He Was a Friend of Mine
TTITLE5=Bloodletter
TTITLE6=Rambling Letters
TTITLE7=Cruel Love
EXTD=
EXTT0=
EXTT1=
EXTT2=
EXTT3=
EXTT4=
EXTT5=
EXTT6=
EXTT7=
PLAYORDER=
